<svg width="206" height="331" viewBox="0 0 206 331" fill="none" xmlns="http://www.w3.org/2000/svg">
<rect width="206" height="331" rx="20" fill="#FFFAD7"/>
<line x1="5.22839" y1="281.968" x2="201.817" y2="281.968" stroke="#FFC471" stroke-width="2"/>
<rect x="4.68274" y="6.76498" width="196.635" height="317.47" rx="19.5" stroke="#FFC471"/>
<rect x="4.5" y="6.5" width="197" height="318" rx="19.5" fill="white" stroke="white"/>
<path d="M89.1808 289.947V290.247H79.7308V299.247H88.4908V299.547H79.7308V310.647H89.8408V310.947H77.2408V289.947H89.1808ZM101.964 311.067C98.2243 311.067 95.4543 310.007 93.6543 307.887C93.0143 307.127 92.4943 306.117 92.0943 304.857C91.6943 303.597 91.4943 302.067 91.4943 300.267C91.4943 298.467 91.7843 296.857 92.3643 295.437C92.9643 293.997 93.7743 292.887 94.7943 292.107C96.7743 290.647 99.1643 289.917 101.964 289.917C102.864 289.917 103.744 289.987 104.604 290.127C105.464 290.247 106.104 290.377 106.524 290.517L107.154 290.727L107.064 291.027C105.504 290.487 103.804 290.217 101.964 290.217C99.8443 290.217 98.0743 290.907 96.6543 292.287C95.5743 293.307 94.8143 294.807 94.3743 296.787C94.1143 297.907 93.9843 299.277 93.9843 300.897C93.9843 302.517 94.2143 304.017 94.6743 305.397C95.1343 306.757 95.6543 307.767 96.2343 308.427C96.8343 309.087 97.5543 309.617 98.3943 310.017C99.2343 310.397 99.9043 310.617 100.404 310.677C100.904 310.737 101.494 310.767 102.174 310.767C102.874 310.767 103.804 310.687 104.964 310.527V304.347H101.334V304.047H108.744V304.347H107.454V310.257C105.934 310.797 104.104 311.067 101.964 311.067ZM110.977 300.957C110.977 297.317 111.857 294.557 113.617 292.677C115.397 290.777 117.677 289.827 120.457 289.827C123.237 289.827 125.447 290.647 127.087 292.287C128.747 293.927 129.577 296.547 129.577 300.147C129.577 303.747 128.697 306.467 126.937 308.307C125.177 310.147 122.827 311.067 119.887 311.067C117.347 311.067 115.267 310.337 113.647 308.877C112.807 308.117 112.147 307.067 111.667 305.727C111.207 304.367 110.977 302.777 110.977 300.957ZM120.367 290.127C118.347 290.127 116.687 291.027 115.387 292.827C114.107 294.627 113.467 297.267 113.467 300.747C113.467 304.227 114.077 306.767 115.297 308.367C116.517 309.967 118.137 310.767 120.157 310.767C122.197 310.767 123.857 309.867 125.137 308.067C126.437 306.247 127.087 303.617 127.087 300.177C127.087 296.717 126.467 294.177 125.227 292.557C124.007 290.937 122.387 290.127 120.367 290.127Z" fill="#FFB35C"/>
<rect x="3.84326" y="6.62244" width="196.434" height="317.61" rx="19.5" stroke="#FFC471"/>
<line x1="4.38782" y1="281.947" x2="200.777" y2="281.947" stroke="#FFC471" stroke-width="2"/>
<path d="M102.06 136.7C122.541 136.7 139.144 153.303 139.144 173.784C139.144 194.265 122.541 210.868 102.06 210.868C81.579 210.868 64.976 194.265 64.976 173.784C64.976 153.303 81.579 136.7 102.06 136.7ZM89.2377 146.055C81.4881 146.055 75.2054 152.337 75.2054 160.087C75.2056 167.836 81.4882 174.118 89.2377 174.118C96.9871 174.118 103.27 167.836 103.27 160.087C103.27 152.337 96.9872 146.055 89.2377 146.055ZM119.748 151.207C114.845 151.207 110.869 155.183 110.869 160.087C110.869 164.991 114.845 168.966 119.748 168.966C124.652 168.966 128.627 164.991 128.627 160.087C128.627 155.183 124.652 151.207 119.748 151.207Z" fill="#FFB35C"/>
<path d="M102.06 239.073C134.08 239.073 160.037 242.581 160.037 246.908C160.035 251.235 134.079 254.742 102.06 254.742C70.0412 254.742 44.0847 251.235 44.0835 246.908C44.0835 242.581 70.0405 239.073 102.06 239.073Z" fill="#FFB35C"/>
<path d="M73.333 179.53C84.6122 194.507 112.103 215.476 131.832 179.53" stroke="white" stroke-linecap="round"/>
<circle cx="89.0023" cy="159.682" r="5.22311" fill="#FFB35C"/>
<circle cx="120.341" cy="159.682" r="3.13387" fill="#FFB35C"/>
<circle cx="103.627" cy="35.3719" r="16.714" fill="#FFB35C"/>
<mask id="path-14-outside-1_2625_72" maskUnits="userSpaceOnUse" x="98.7792" y="22.5687" width="13" height="23" fill="black">
<rect fill="white" x="98.7792" y="22.5687" width="13" height="23"/>
<path d="M100.336 24.1687C101.956 23.6687 103.576 23.4187 105.196 23.4187C106.836 23.4187 108.176 23.8287 109.216 24.6487C110.256 25.4487 110.776 26.6587 110.776 28.2787C110.776 29.8587 109.876 31.4887 108.076 33.1687C107.316 33.8487 106.556 34.5487 105.796 35.2687C105.056 35.9887 104.416 36.8187 103.876 37.7587C103.356 38.6987 103.096 39.6887 103.096 40.7287H102.796C102.796 38.8087 103.456 36.9487 104.776 35.1487C105.316 34.4087 105.856 33.6887 106.396 32.9887C107.736 31.2887 108.406 29.7387 108.406 28.3387C108.406 26.9187 108.076 25.7887 107.416 24.9487C106.756 24.0887 105.816 23.6587 104.596 23.6587C103.676 23.6587 102.536 23.8287 101.176 24.1687L100.456 24.3487L100.336 24.1687ZM102.046 43.7287C102.046 43.4487 102.136 43.2187 102.316 43.0387C102.516 42.8587 102.746 42.7687 103.006 42.7687C103.266 42.7687 103.486 42.8687 103.666 43.0687C103.866 43.2487 103.966 43.4687 103.966 43.7287C103.966 43.9887 103.866 44.2187 103.666 44.4187C103.486 44.5987 103.266 44.6887 103.006 44.6887C102.746 44.6887 102.516 44.5987 102.316 44.4187C102.136 44.2187 102.046 43.9887 102.046 43.7287Z"/>
</mask>
<path d="M100.336 24.1687C101.956 23.6687 103.576 23.4187 105.196 23.4187C106.836 23.4187 108.176 23.8287 109.216 24.6487C110.256 25.4487 110.776 26.6587 110.776 28.2787C110.776 29.8587 109.876 31.4887 108.076 33.1687C107.316 33.8487 106.556 34.5487 105.796 35.2687C105.056 35.9887 104.416 36.8187 103.876 37.7587C103.356 38.6987 103.096 39.6887 103.096 40.7287H102.796C102.796 38.8087 103.456 36.9487 104.776 35.1487C105.316 34.4087 105.856 33.6887 106.396 32.9887C107.736 31.2887 108.406 29.7387 108.406 28.3387C108.406 26.9187 108.076 25.7887 107.416 24.9487C106.756 24.0887 105.816 23.6587 104.596 23.6587C103.676 23.6587 102.536 23.8287 101.176 24.1687L100.456 24.3487L100.336 24.1687ZM102.046 43.7287C102.046 43.4487 102.136 43.2187 102.316 43.0387C102.516 42.8587 102.746 42.7687 103.006 42.7687C103.266 42.7687 103.486 42.8687 103.666 43.0687C103.866 43.2487 103.966 43.4687 103.966 43.7287C103.966 43.9887 103.866 44.2187 103.666 44.4187C103.486 44.5987 103.266 44.6887 103.006 44.6887C102.746 44.6887 102.516 44.5987 102.316 44.4187C102.136 44.2187 102.046 43.9887 102.046 43.7287Z" fill="white"/>
<path d="M100.336 24.1687L100.189 23.6909L99.5486 23.8885L99.9203 24.446L100.336 24.1687ZM109.216 24.6487L108.907 25.0413L108.911 25.045L109.216 24.6487ZM108.076 33.1687L108.41 33.5414L108.417 33.5342L108.076 33.1687ZM105.796 35.2687L105.452 34.9057L105.448 34.9103L105.796 35.2687ZM103.876 37.7587L103.443 37.5096L103.439 37.5166L103.876 37.7587ZM103.096 40.7287V41.2287H103.596V40.7287H103.096ZM102.796 40.7287H102.296V41.2287H102.796V40.7287ZM104.776 35.1487L105.179 35.4443L105.18 35.4434L104.776 35.1487ZM106.396 32.9887L106.004 32.6791L106 32.6833L106.396 32.9887ZM107.416 24.9487L107.02 25.2531L107.023 25.2576L107.416 24.9487ZM101.176 24.1687L101.298 24.6537V24.6537L101.176 24.1687ZM100.456 24.3487L100.04 24.626L100.236 24.9192L100.578 24.8337L100.456 24.3487ZM102.316 43.0387L101.982 42.667L101.972 42.6758L101.963 42.6851L102.316 43.0387ZM103.666 43.0687L103.295 43.4031L103.312 43.4227L103.332 43.4403L103.666 43.0687ZM103.666 44.4187L103.313 44.0651L103.666 44.4187ZM102.316 44.4187L101.945 44.7531L101.962 44.7727L101.982 44.7903L102.316 44.4187ZM100.336 24.1687L100.484 24.6464C102.058 24.1605 103.629 23.9187 105.196 23.9187V23.4187V22.9187C103.524 22.9187 101.854 23.1768 100.189 23.6909L100.336 24.1687ZM105.196 23.4187V23.9187C106.751 23.9187 107.974 24.3061 108.907 25.0413L109.216 24.6487L109.526 24.256C108.378 23.3512 106.921 22.9187 105.196 22.9187V23.4187ZM109.216 24.6487L108.911 25.045C109.8 25.7282 110.276 26.7735 110.276 28.2787H110.776H111.276C111.276 26.5438 110.713 25.1692 109.521 24.2524L109.216 24.6487ZM110.776 28.2787H110.276C110.276 29.6589 109.489 31.1658 107.735 32.8031L108.076 33.1687L108.417 33.5342C110.263 31.8116 111.276 30.0584 111.276 28.2787H110.776ZM108.076 33.1687L107.743 32.796C106.979 33.4793 106.216 34.1825 105.452 34.9057L105.796 35.2687L106.14 35.6316C106.897 34.9148 107.653 34.218 108.41 33.5413L108.076 33.1687ZM105.796 35.2687L105.448 34.9103C104.673 35.6642 104.005 36.5314 103.443 37.5096L103.876 37.7587L104.31 38.0077C104.828 37.1059 105.44 36.3131 106.145 35.627L105.796 35.2687ZM103.876 37.7587L103.439 37.5166C102.879 38.5282 102.596 39.6011 102.596 40.7287H103.096H103.596C103.596 39.7762 103.833 38.8691 104.314 38.0007L103.876 37.7587ZM103.096 40.7287V40.2287H102.796V40.7287V41.2287H103.096V40.7287ZM102.796 40.7287H103.296C103.296 38.9316 103.912 37.173 105.179 35.4443L104.776 35.1487L104.373 34.853C103.001 36.7243 102.296 38.6857 102.296 40.7287H102.796ZM104.776 35.1487L105.18 35.4434C105.718 34.7069 106.255 33.9904 106.792 33.2941L106.396 32.9887L106 32.6833C105.458 33.3869 104.915 34.1105 104.372 34.8539L104.776 35.1487ZM106.396 32.9887L106.789 33.2982C108.163 31.5555 108.906 29.8977 108.906 28.3387H108.406H107.906C107.906 29.5796 107.31 31.0218 106.004 32.6791L106.396 32.9887ZM108.406 28.3387H108.906C108.906 26.8435 108.558 25.593 107.809 24.6398L107.416 24.9487L107.023 25.2576C107.594 25.9843 107.906 26.9938 107.906 28.3387H108.406ZM107.416 24.9487L107.813 24.6443C107.046 23.6443 105.949 23.1587 104.596 23.1587V23.6587V24.1587C105.683 24.1587 106.467 24.533 107.02 25.2531L107.416 24.9487ZM104.596 23.6587V23.1587C103.62 23.1587 102.436 23.3383 101.055 23.6836L101.176 24.1687L101.298 24.6537C102.636 24.3191 103.733 24.1587 104.596 24.1587V23.6587ZM101.176 24.1687L101.055 23.6836L100.335 23.8636L100.456 24.3487L100.578 24.8337L101.298 24.6537L101.176 24.1687ZM100.456 24.3487L100.872 24.0713L100.752 23.8913L100.336 24.1687L99.9203 24.446L100.04 24.626L100.456 24.3487ZM102.046 43.7287H102.546C102.546 43.5667 102.593 43.4686 102.67 43.3922L102.316 43.0387L101.963 42.6851C101.679 42.9687 101.546 43.3306 101.546 43.7287H102.046ZM102.316 43.0387L102.651 43.4103C102.762 43.3098 102.874 43.2687 103.006 43.2687V42.7687V42.2687C102.618 42.2687 102.27 42.4076 101.982 42.667L102.316 43.0387ZM103.006 42.7687V43.2687C103.119 43.2687 103.206 43.3043 103.295 43.4031L103.666 43.0687L104.038 42.7342C103.767 42.433 103.414 42.2687 103.006 42.2687V42.7687ZM103.666 43.0687L103.332 43.4403C103.431 43.5293 103.466 43.6159 103.466 43.7287H103.966H104.466C104.466 43.3214 104.302 42.9681 104.001 42.697L103.666 43.0687ZM103.966 43.7287H103.466C103.466 43.8437 103.428 43.9498 103.313 44.0651L103.666 44.4187L104.02 44.7722C104.305 44.4875 104.466 44.1336 104.466 43.7287H103.966ZM103.666 44.4187L103.313 44.0651C103.229 44.1491 103.137 44.1887 103.006 44.1887V44.6887V45.1887C103.396 45.1887 103.744 45.0482 104.02 44.7722L103.666 44.4187ZM103.006 44.6887V44.1887C102.874 44.1887 102.762 44.1476 102.651 44.047L102.316 44.4187L101.982 44.7903C102.27 45.0498 102.618 45.1887 103.006 45.1887V44.6887ZM102.316 44.4187L102.688 44.0842C102.587 43.9725 102.546 43.8605 102.546 43.7287H102.046H101.546C101.546 44.1168 101.685 44.4649 101.945 44.7531L102.316 44.4187Z" fill="white" mask="url(#path-14-outside-1_2625_72)"/>
</svg>
