<svg width="206" height="332" viewBox="0 0 206 332" fill="none" xmlns="http://www.w3.org/2000/svg">
<rect width="205.791" height="331.145" rx="20" fill="#FFFAD7"/>
<rect x="4.67847" y="6.76776" width="196.434" height="317.61" rx="19.5" fill="white" stroke="white"/>
<line x1="5.22308" y1="282.093" x2="201.612" y2="282.093" stroke="#FFC471" stroke-width="2"/>
<rect x="4.67847" y="6.76776" width="196.434" height="317.61" rx="19.5" stroke="#FFC471"/>
<path d="M67.9031 290.123C68.7831 290.083 69.6431 290.063 70.4831 290.063C71.3431 290.063 72.2431 290.153 73.1831 290.333C74.1431 290.513 75.0831 290.853 76.0031 291.353C76.9431 291.833 77.7331 292.463 78.3731 293.243C79.0331 294.003 79.5631 295.013 79.9631 296.273C80.3631 297.533 80.5631 299.063 80.5631 300.863C80.5631 302.663 80.2631 304.283 79.6631 305.723C79.0831 307.143 78.2831 308.233 77.2631 308.993C75.2831 310.473 72.8931 311.213 70.0931 311.213C69.1131 311.213 68.0831 311.173 67.0031 311.093H65.5031V290.123H67.9031ZM67.9931 310.853C68.4131 310.893 68.9431 310.913 69.5831 310.913C70.2231 310.913 70.7031 310.903 71.0231 310.883C71.3431 310.863 71.7831 310.783 72.3431 310.643C72.9031 310.483 73.4231 310.273 73.9031 310.013C74.3831 309.753 74.8831 309.373 75.4031 308.873C75.9431 308.353 76.4031 307.743 76.7831 307.043C77.6431 305.403 78.0731 303.263 78.0731 300.623C78.0731 298.743 77.8431 297.123 77.3831 295.763C76.9231 294.383 76.3931 293.363 75.7931 292.703C75.2131 292.043 74.5031 291.523 73.6631 291.143C72.8231 290.743 72.1531 290.513 71.6531 290.453C71.1531 290.393 70.5731 290.363 69.9131 290.363C69.2531 290.363 68.6131 290.393 67.9931 290.453V310.853ZM83.2722 301.103C83.2722 297.463 84.1522 294.703 85.9122 292.823C87.6922 290.923 89.9722 289.973 92.7522 289.973C95.5322 289.973 97.7422 290.793 99.3822 292.433C101.042 294.073 101.872 296.693 101.872 300.293C101.872 303.893 100.992 306.613 99.2322 308.453C97.4722 310.293 95.1222 311.213 92.1822 311.213C89.6422 311.213 87.5622 310.483 85.9422 309.023C85.1022 308.263 84.4422 307.213 83.9622 305.873C83.5022 304.513 83.2722 302.923 83.2722 301.103ZM92.6622 290.273C90.6422 290.273 88.9822 291.173 87.6822 292.973C86.4022 294.773 85.7622 297.413 85.7622 300.893C85.7622 304.373 86.3722 306.913 87.5922 308.513C88.8122 310.113 90.4322 310.913 92.4522 310.913C94.4922 310.913 96.1522 310.013 97.4322 308.213C98.7322 306.393 99.3822 303.763 99.3822 300.323C99.3822 296.863 98.7622 294.323 97.5222 292.703C96.3022 291.083 94.6822 290.273 92.6622 290.273ZM104.571 301.103C104.571 297.463 105.451 294.703 107.211 292.823C108.991 290.923 111.271 289.973 114.051 289.973C116.831 289.973 119.041 290.793 120.681 292.433C122.341 294.073 123.171 296.693 123.171 300.293C123.171 303.893 122.291 306.613 120.531 308.453C118.771 310.293 116.421 311.213 113.481 311.213C110.941 311.213 108.861 310.483 107.241 309.023C106.401 308.263 105.741 307.213 105.261 305.873C104.801 304.513 104.571 302.923 104.571 301.103ZM113.961 290.273C111.941 290.273 110.281 291.173 108.981 292.973C107.701 294.773 107.061 297.413 107.061 300.893C107.061 304.373 107.671 306.913 108.891 308.513C110.111 310.113 111.731 310.913 113.751 310.913C115.791 310.913 117.451 310.013 118.731 308.213C120.031 306.393 120.681 303.763 120.681 300.323C120.681 296.863 120.061 294.323 118.821 292.703C117.601 291.083 115.981 290.273 113.961 290.273ZM126.47 290.333C128.79 290.173 130.84 290.093 132.62 290.093C137.56 290.093 140.03 291.743 140.03 295.043C140.03 296.443 139.69 297.693 139.01 298.793C138.33 299.893 137.16 300.623 135.5 300.983L141.5 311.093H138.71L132.83 301.163H128.96V311.093H126.47V290.333ZM132.62 290.393C131.46 290.393 130.24 290.463 128.96 290.603V300.863H133.4C136.22 300.743 137.63 298.823 137.63 295.103C137.63 293.583 137.21 292.423 136.37 291.623C135.53 290.803 134.28 290.393 132.62 290.393Z" fill="#FFB35C"/>
<path d="M113.438 49.2465H94.016V46.1127H113.438V49.2465ZM113.438 45.2162H94.016V15.6693H113.438V45.2162ZM111.252 28.8763C110.387 28.0111 108.984 28.0111 108.119 28.8763C107.254 29.7415 107.254 31.144 108.119 32.0092C108.984 32.8743 110.387 32.8744 111.252 32.0092C112.117 31.144 112.117 29.7416 111.252 28.8763Z" fill="#FFB35C"/>
<path d="M146.247 258.022H47.008V66.8558H146.247V258.022ZM125.355 159.828C121.893 159.828 119.087 162.634 119.087 166.095C119.087 169.557 121.893 172.363 125.355 172.363C128.816 172.363 131.622 169.557 131.622 166.095C131.622 162.634 128.816 159.828 125.355 159.828Z" fill="#FFB35C"/>
<rect x="139.979" y="66.8558" width="6.26773" height="191.166" fill="#FFC471"/>
<rect x="160.872" y="66.8558" width="6.26773" height="191.166" fill="#FFC471"/>
<path d="M159.827 66.8558H164.006V258.022H159.827V66.8558Z" fill="#FFB35C"/>
<rect x="159.827" y="264.289" width="4.1785" height="112.819" transform="rotate(90 159.827 264.289)" fill="#FFC471"/>
<rect x="146.247" y="251.754" width="6.26774" height="99.2391" transform="rotate(90 146.247 251.754)" fill="#FFC471"/>
<rect x="152.515" y="66.8558" width="3.13387" height="191.166" fill="#FFB35C"/>
<rect x="159.827" y="261.156" width="3.13388" height="112.819" transform="rotate(90 159.827 261.156)" fill="#FFB35C"/>
<rect x="114.908" y="49.0972" width="33.4279" height="1.04462" transform="rotate(-90 114.908 49.0972)" fill="#FFB35C"/>
</svg>
