<svg width="206" height="332" viewBox="0 0 206 332" fill="none" xmlns="http://www.w3.org/2000/svg">
<rect width="205.791" height="331.145" rx="20" fill="#FFFAD7"/>
<rect x="4.67847" y="6.76776" width="196.434" height="317.61" rx="19.5" fill="black" stroke="white"/>
<line x1="5.22308" y1="282.093" x2="201.612" y2="282.093" stroke="#FFC471" stroke-width="2"/>
<rect x="4.67847" y="6.76776" width="196.434" height="317.61" rx="19.5" stroke="#FFC471"/>
<path d="M104.462 16.2035L85.1482 35.517L104.462 54.8304V55.3646H83.6218V15.6693H104.462V16.2035ZM104.996 55.3646H104.463V54.8314L104.996 55.3646ZM125.302 55.3646H104.996L124.844 35.517H125.302V55.3646ZM124.844 35.517H104.463V54.8314L104.462 54.8304V16.2035L104.996 15.6693L124.844 35.517Z" fill="#FFB35C"/>
<path d="M200.568 281.003H5.22314V216.367L200.568 20.8925V281.003Z" fill="white"/>
<path d="M54.9856 290.333C57.3056 290.173 59.3556 290.093 61.1356 290.093C66.0756 290.093 68.5456 291.743 68.5456 295.043C68.5456 296.443 68.2056 297.693 67.5256 298.793C66.8456 299.893 65.6756 300.623 64.0156 300.983L70.0156 311.093H67.2256L61.3456 301.163H57.4756V311.093H54.9856V290.333ZM61.1356 290.393C59.9756 290.393 58.7556 290.463 57.4756 290.603V300.863H61.9156C64.7356 300.743 66.1456 298.823 66.1456 295.103C66.1456 293.583 65.7256 292.423 64.8856 291.623C64.0456 290.803 62.7956 290.393 61.1356 290.393ZM84.9432 290.093V290.393H75.4932V299.393H84.2532V299.693H75.4932V310.793H85.6032V311.093H73.0032V290.093H84.9432ZM102.895 290.093C103.275 290.473 103.465 290.963 103.465 291.563C103.465 292.063 103.355 292.573 103.135 293.093L95.4549 311.093L95.1249 311.243L87.5649 290.093H90.1149L96.3849 307.853L102.775 293.093C102.995 292.593 103.105 292.073 103.105 291.533C103.105 290.993 102.955 290.573 102.655 290.273L102.895 290.093ZM118.4 290.093V290.393H108.95V299.393H117.71V299.693H108.95V310.793H119.06V311.093H106.46V290.093H118.4ZM121.382 311.093H121.022L129.992 290.093L130.322 289.943L137.882 311.093H135.332L132.992 304.493H124.232L121.382 311.093ZM129.062 293.333L124.352 304.193H132.902L129.062 293.333ZM151.991 311.093H140.591V290.093H143.081V310.793H151.991V311.093Z" fill="#FFB35C"/>
<line x1="68.5916" y1="209.616" x2="79.0378" y2="199.169" stroke="#FFB35C"/>
<line x1="115.6" y1="256.624" x2="154.251" y2="217.973" stroke="#FFB35C"/>
<line x1="145.535" y1="201.238" x2="154.936" y2="209.595" stroke="#FFB35C"/>
<line x1="106.198" y1="257.331" x2="68.5916" y2="219.724" stroke="#FFB35C"/>
<path d="M148.467 214.213L110.795 251.885L73.1239 214.213L80.1415 207.193L110.208 237.26L140.86 206.606L148.467 214.213ZM135.638 187.346L141.154 181.829L148.467 189.141L142.95 194.658L135.638 187.346L128.618 194.364L135.931 201.677L110.795 226.813L85.6581 201.676L92.9706 194.364L85.3651 186.759L78.0526 194.07L73.1239 189.141L80.4354 181.829L85.3651 186.759L110.208 161.917L135.638 187.346ZM92.9706 194.364L110.795 212.189L128.618 194.364L110.795 176.541L92.9706 194.364ZM85.6581 201.676L80.1415 207.193L72.536 199.588L78.0526 194.07L85.6581 201.676ZM147.88 199.588L140.86 206.606L135.931 201.677L142.95 194.658L147.88 199.588ZM148.467 174.517L141.154 181.829L110.795 151.471L80.4354 181.829L73.1239 174.517L110.795 136.846L148.467 174.517Z" fill="black"/>
</svg>
