<svg width="206" height="332" viewBox="0 0 206 332" fill="none" xmlns="http://www.w3.org/2000/svg">
<rect width="205.791" height="331.145" rx="20" fill="#FFFAD7"/>
<rect x="4.67847" y="6.76773" width="196.434" height="317.61" rx="19.5" fill="black" stroke="white"/>
<line x1="5.22308" y1="282.093" x2="201.612" y2="282.093" stroke="#FFC471" stroke-width="2"/>
<rect x="4.67847" y="6.76773" width="196.434" height="317.61" rx="19.5" stroke="#FFC471"/>
<path d="M64.8106 291.352C62.9906 290.652 61.2706 290.302 59.6506 290.302C58.0506 290.302 56.8006 290.642 55.9006 291.322C55.0006 292.002 54.5506 292.942 54.5506 294.142C54.5506 295.602 55.3106 296.732 56.8306 297.532C57.5106 297.872 58.2506 298.192 59.0506 298.492C59.8706 298.772 60.6906 299.092 61.5106 299.452C62.3306 299.812 63.0806 300.222 63.7606 300.682C64.4406 301.142 64.9906 301.782 65.4106 302.602C65.8306 303.402 66.0406 304.432 66.0406 305.692C66.0406 306.932 65.6906 307.992 64.9906 308.872C64.2906 309.752 63.4406 310.352 62.4406 310.672C61.4606 310.972 60.3106 311.122 58.9906 311.122C56.5306 311.122 54.4306 310.512 52.6906 309.292L52.8406 309.052C53.5006 309.572 54.3506 310.002 55.3906 310.342C56.4506 310.662 57.5306 310.822 58.6306 310.822C60.2506 310.822 61.6306 310.452 62.7706 309.712C63.9306 308.952 64.5106 307.842 64.5106 306.382C64.5106 304.782 63.7506 303.532 62.2306 302.632C61.5506 302.232 60.8006 301.862 59.9806 301.522C59.1806 301.182 58.3706 300.832 57.5506 300.472C56.7306 300.092 55.9806 299.672 55.3006 299.212C53.7806 298.212 53.0206 296.792 53.0206 294.952C53.0206 293.492 53.5106 292.312 54.4906 291.412C55.4706 290.492 56.9406 290.032 58.9006 290.032C60.8806 290.032 62.8906 290.372 64.9306 291.052L64.8106 291.352ZM80.88 311.092C80.06 311.092 79.43 310.912 78.99 310.552C78.57 310.192 78.35 309.832 78.33 309.472L78.3 308.962V299.542C78.3 297.962 77.88 296.952 77.04 296.512C76.64 296.312 76.13 296.212 75.51 296.212C74.27 296.212 73.15 296.722 72.15 297.742C71.17 298.742 70.68 299.642 70.68 300.442V311.092H68.58V288.622H70.68V299.512C71 298.652 71.61 297.852 72.51 297.112C73.41 296.352 74.42 295.972 75.54 295.972C77.48 295.972 78.77 296.312 79.41 296.992C80.07 297.652 80.4 298.512 80.4 299.572V308.962C80.4 309.542 80.51 309.992 80.73 310.312C80.97 310.612 81.2 310.772 81.42 310.792L81.78 310.852H82.71V311.092H80.88ZM96.754 311.092C95.394 311.092 94.464 310.832 93.964 310.312C93.504 309.872 93.274 309.492 93.274 309.172V308.542C92.294 310.322 90.724 311.212 88.564 311.212C86.044 311.212 84.614 310.072 84.274 307.792C84.234 307.552 84.214 307.312 84.214 307.072C84.214 306.812 84.254 306.532 84.334 306.232C84.414 305.932 84.644 305.602 85.024 305.242C85.784 304.522 87.454 304.082 90.034 303.922C90.674 303.862 91.264 303.832 91.804 303.832C92.344 303.832 92.834 303.852 93.274 303.892V298.912C93.234 298.892 93.234 298.802 93.274 298.642C93.314 298.462 93.274 298.242 93.154 297.982C93.054 297.702 92.914 297.432 92.734 297.172C92.554 296.912 92.234 296.692 91.774 296.512C91.314 296.312 90.714 296.212 89.974 296.212C89.234 296.212 88.364 296.352 87.364 296.632C86.384 296.892 85.664 297.152 85.204 297.412L85.084 297.202C86.864 296.382 88.674 295.972 90.514 295.972C92.574 295.972 93.934 296.342 94.594 297.082C95.114 297.662 95.374 298.272 95.374 298.912V308.962C95.374 309.542 95.484 309.992 95.704 310.312C95.944 310.612 96.184 310.772 96.424 310.792L96.754 310.852H97.684V311.092H96.754ZM89.044 310.972C90.104 310.972 91.054 310.612 91.894 309.892C92.754 309.152 93.214 308.442 93.274 307.762V304.132C92.734 304.092 92.184 304.072 91.624 304.072C91.084 304.072 90.544 304.102 90.004 304.162C88.484 304.342 87.494 304.682 87.034 305.182C86.574 305.682 86.344 306.372 86.344 307.252C86.344 307.412 86.354 307.592 86.374 307.792C86.554 309.912 87.444 310.972 89.044 310.972ZM99.3347 304.132C99.3347 301.532 99.9647 299.522 101.225 298.102C102.485 296.682 104.375 295.972 106.895 295.972C108.075 295.972 109.265 296.272 110.465 296.872V288.622H112.565V308.962C112.565 309.542 112.675 309.992 112.895 310.312C113.135 310.612 113.375 310.772 113.615 310.792L113.945 310.852H114.875V311.092H113.045C112.225 311.092 111.595 310.912 111.155 310.552C110.735 310.192 110.515 309.832 110.495 309.472L110.465 308.962V308.482C110.085 309.182 109.455 309.802 108.575 310.342C107.695 310.882 106.655 311.152 105.455 311.152C101.375 311.052 99.3347 308.712 99.3347 304.132ZM105.485 310.912C106.825 310.912 107.975 310.552 108.935 309.832C109.895 309.112 110.405 308.402 110.465 307.702V297.142C109.045 296.522 107.825 296.212 106.805 296.212C105.025 296.212 103.685 296.912 102.785 298.312C101.885 299.692 101.435 301.632 101.435 304.132C101.435 308.652 102.785 310.912 105.485 310.912ZM122.88 311.212C120.78 311.212 119.07 310.612 117.75 309.412C116.43 308.212 115.77 306.362 115.77 303.862C115.77 301.362 116.45 299.422 117.81 298.042C119.19 296.662 120.93 295.972 123.03 295.972C125.15 295.972 126.87 296.572 128.19 297.772C129.51 298.972 130.17 300.822 130.17 303.322C130.17 305.822 129.48 307.762 128.1 309.142C126.74 310.522 125 311.212 122.88 311.212ZM123.09 296.212C121.57 296.212 120.31 296.892 119.31 298.252C118.31 299.592 117.81 301.472 117.81 303.892C117.81 306.292 118.27 308.072 119.19 309.232C120.11 310.392 121.33 310.972 122.85 310.972C124.37 310.972 125.63 310.302 126.63 308.962C127.63 307.602 128.13 305.722 128.13 303.322C128.13 300.902 127.67 299.112 126.75 297.952C125.83 296.792 124.61 296.212 123.09 296.212ZM152.319 296.272L152.499 296.092C152.579 296.132 152.679 296.252 152.799 296.452C152.939 296.652 153.019 296.832 153.039 296.992C153.079 297.152 153.099 297.302 153.099 297.442C153.099 297.982 152.979 298.532 152.739 299.092L147.279 311.092H146.979L142.659 299.482L137.379 311.092H137.079L131.499 296.092H133.599L138.189 308.512L142.509 299.122L141.399 296.092H143.499L148.089 308.512L152.439 299.092C152.679 298.672 152.799 298.172 152.799 297.592C152.799 297.012 152.639 296.572 152.319 296.272Z" fill="#FFB35C"/>
<path d="M99.5908 15.6758C103.894 15.563 108.119 16.8415 111.638 19.3213C115.156 21.8011 117.78 25.3501 119.121 29.4405C120.462 33.5309 120.446 37.9452 119.078 42.0264C117.71 46.1076 115.061 49.6389 111.526 52.0948L106.823 45.3252C108.901 43.8815 110.458 41.8056 111.263 39.4063C112.067 37.0071 112.076 34.4125 111.288 32.0079C110.5 29.6032 108.957 27.5165 106.889 26.0586C104.82 24.6009 102.336 23.8497 99.8066 23.9161C97.2771 23.9825 94.8366 24.8636 92.8476 26.4278C90.8585 27.9921 89.4265 30.156 88.7656 32.5987C88.1047 35.0414 88.2496 37.6326 89.1787 39.9864C90.1077 42.3401 91.7718 44.3314 93.9228 45.6641L89.582 52.671C85.9228 50.4038 83.0921 47.0158 81.5117 43.0118C79.9315 39.008 79.6854 34.6013 80.8095 30.4463C81.9337 26.2913 84.3684 22.6092 87.7519 19.9483C91.1355 17.2874 95.2877 15.7887 99.5908 15.6758Z" fill="#FFB35C"/>
<path d="M103.418 213.103C130.533 213.103 152.515 217.78 152.515 223.549C152.514 229.318 130.533 233.995 103.418 233.996C76.3024 233.996 54.3205 229.319 54.3203 223.549C54.3203 217.78 76.3023 213.103 103.418 213.103Z" fill="white"/>
<path d="M103.418 97.1499C125.918 97.1499 144.158 115.39 144.158 137.89C144.158 160.39 125.918 178.63 103.418 178.63C80.9173 178.63 62.6773 160.39 62.6773 137.89C62.6773 115.39 80.9173 97.1499 103.418 97.1499Z" fill="#FFB35C"/>
<rect x="77.0563" y="132.626" width="17.9737" height="2.39649" transform="rotate(-45 77.0563 132.626)" fill="black"/>
<rect x="78.7507" y="119.916" width="17.9737" height="2.39649" transform="rotate(45 78.7507 119.916)" fill="black"/>
<rect x="112.404" y="132.626" width="17.9737" height="2.39649" transform="rotate(-45 112.404 132.626)" fill="black"/>
<rect x="114.099" y="119.916" width="17.9737" height="2.39649" transform="rotate(45 114.099 119.916)" fill="black"/>
<rect x="52.2311" y="150.426" width="108.641" height="2.08924" fill="black"/>
<rect x="52.2311" y="156.693" width="108.641" height="2.08924" fill="black"/>
<rect x="52.2311" y="162.961" width="108.641" height="2.08924" fill="black"/>
<rect x="52.2311" y="169.229" width="108.641" height="2.08924" fill="black"/>
</svg>
