<svg width="206" height="332" viewBox="0 0 206 332" fill="none" xmlns="http://www.w3.org/2000/svg">
<rect width="205.791" height="331.145" rx="20" fill="#FFFAD7"/>
<rect x="4.6785" y="6.76773" width="196.434" height="317.61" rx="19.5" fill="white" stroke="white"/>
<line x1="5.22311" y1="282.093" x2="201.612" y2="282.093" stroke="#FFC471" stroke-width="2"/>
<rect x="4.6785" y="6.76773" width="196.434" height="317.61" rx="19.5" stroke="#FFC471"/>
<path d="M90.1668 291.353C88.3468 290.653 86.6268 290.303 85.0068 290.303C83.4068 290.303 82.1568 290.643 81.2568 291.323C80.3568 292.003 79.9068 292.943 79.9068 294.143C79.9068 295.603 80.6668 296.733 82.1868 297.533C82.8668 297.873 83.6068 298.193 84.4068 298.493C85.2268 298.773 86.0468 299.093 86.8668 299.453C87.6868 299.813 88.4368 300.223 89.1168 300.683C89.7968 301.143 90.3468 301.783 90.7668 302.603C91.1868 303.403 91.3968 304.433 91.3968 305.693C91.3968 306.933 91.0468 307.993 90.3468 308.873C89.6468 309.753 88.7968 310.353 87.7968 310.673C86.8168 310.973 85.6668 311.123 84.3468 311.123C81.8868 311.123 79.7868 310.513 78.0468 309.293L78.1968 309.053C78.8568 309.573 79.7068 310.003 80.7468 310.343C81.8068 310.663 82.8868 310.823 83.9868 310.823C85.6068 310.823 86.9868 310.453 88.1268 309.713C89.2868 308.953 89.8668 307.843 89.8668 306.383C89.8668 304.783 89.1068 303.533 87.5868 302.633C86.9068 302.233 86.1568 301.863 85.3368 301.523C84.5368 301.183 83.7268 300.833 82.9068 300.473C82.0868 300.093 81.3368 299.673 80.6568 299.213C79.1368 298.213 78.3768 296.793 78.3768 294.953C78.3768 293.493 78.8668 292.313 79.8468 291.413C80.8268 290.493 82.2968 290.033 84.2568 290.033C86.2368 290.033 88.2468 290.373 90.2868 291.053L90.1668 291.353ZM108.966 290.093H109.356V302.093C109.356 305.233 108.736 307.543 107.496 309.023C106.256 310.483 104.636 311.213 102.636 311.213C101.376 311.213 100.306 311.103 99.4263 310.883C98.5463 310.643 97.7163 310.213 96.9363 309.593C95.3363 308.353 94.5363 305.853 94.5363 302.093V290.093H97.0263V302.063C97.0263 305.703 97.5763 308.133 98.6763 309.353C99.2363 309.953 99.8163 310.363 100.416 310.583C101.036 310.803 101.776 310.913 102.636 310.913C104.556 310.913 106.086 310.213 107.226 308.813C108.386 307.393 108.966 305.143 108.966 302.063V290.093ZM113.351 311.093H112.961V290.093H113.981L126.461 309.503V290.093H126.851V311.093H124.661L113.351 293.693V311.093Z" fill="#FFB35C"/>
<path d="M143.511 129.019C149.918 137.611 153.435 148.014 153.556 158.731C153.678 169.448 150.397 179.928 144.186 188.663L142.407 187.398C148.35 179.039 151.489 169.011 151.373 158.756C151.257 148.5 147.892 138.546 141.761 130.324L143.511 129.019Z" fill="#FFB35C"/>
<path d="M21.0459 182.734C17.0816 168.885 16.6962 154.257 19.9256 140.219C23.155 126.18 29.8936 113.191 39.5107 102.466C49.1278 91.7414 61.3089 83.6323 74.9137 78.8979C88.5186 74.1634 103.102 72.9584 117.3 75.3956L116.333 81.0285C103.088 78.7549 89.4837 79.879 76.7922 84.2956C64.1006 88.7123 52.7373 96.277 43.7657 106.282C34.7942 116.286 28.508 128.404 25.4954 141.5C22.4828 154.596 22.8424 168.242 26.5405 181.161L21.0459 182.734Z" fill="#FFB35C"/>
<path d="M148.9 87.6682C167.899 99.8694 181.273 119.118 186.08 141.18L182.773 141.901C178.157 120.716 165.315 102.233 147.071 90.5166L148.9 87.6682Z" fill="#FFB35C"/>
<path d="M185.028 181.722C179.082 203.505 164.727 222.034 145.121 233.233L143.442 230.293C162.269 219.539 176.053 201.747 181.762 180.831L185.028 181.722Z" fill="#FFB35C"/>
<circle cx="102.895" cy="159.305" r="26.6379" fill="#FFB35C"/>
<path d="M142.812 213.586C131.61 221.824 118.133 226.394 104.231 226.67C90.3283 226.945 76.681 222.913 65.161 215.126L67.6481 211.446C78.4088 218.72 91.1566 222.487 104.143 222.23C117.129 221.972 129.717 217.703 140.181 210.008L142.812 213.586Z" fill="#FFB35C"/>
<path d="M45.3895 194.418C38.1431 182.55 34.746 168.731 35.6642 154.856C36.5824 140.981 41.7709 127.73 50.518 116.921L66.6508 129.975C60.5979 137.455 57.0075 146.625 56.3721 156.226C55.7367 165.827 58.0875 175.39 63.1019 183.602L45.3895 194.418Z" fill="#FFB35C"/>
<path d="M90.8909 93.0048C108.475 89.821 126.603 93.7528 141.288 103.935L138.293 108.255C124.753 98.8675 108.039 95.2424 91.8276 98.1778L90.8909 93.0048Z" fill="#FFB35C"/>
<path d="M97.9034 244.295C75.3626 242.971 54.271 232.747 39.2684 215.872L41.7983 213.623C56.2043 229.827 76.4574 239.645 98.1019 240.916L97.9034 244.295Z" fill="#FFB35C"/>
<path d="M102.373 57.4545L96.254 51.3354H108.492L102.373 57.4545ZM96.254 51.3354H87.9092V42.9906L96.254 51.3354ZM117.455 51.3354H108.492L117.455 42.3725V51.3354ZM87.9092 42.9906L81.4805 36.5619L87.9092 30.1332V42.9906ZM123.266 36.5619L117.455 42.3725V30.7514L123.266 36.5619ZM117.455 30.7514L108.492 21.7885H117.455V30.7514ZM87.9092 30.1332V21.7885H96.254L87.9092 30.1332ZM108.492 21.7885H96.254L102.373 15.6693L108.492 21.7885Z" fill="#FFB35C"/>
</svg>
