<svg width="206" height="331" viewBox="0 0 206 331" fill="none" xmlns="http://www.w3.org/2000/svg">
<rect width="206" height="331" rx="20" fill="#FFFAD7"/>
<rect x="4.68274" y="6.76501" width="196.635" height="317.47" rx="19.5" fill="black" stroke="white"/>
<line x1="5.22842" y1="281.968" x2="201.817" y2="281.968" stroke="#FFC471" stroke-width="2"/>
<rect x="4.68274" y="6.76501" width="196.635" height="317.47" rx="19.5" stroke="#FFC471"/>
<path d="M63.5133 310.947H63.1233L65.7333 289.947H66.7233L73.0233 309.357L79.2933 289.947H80.2833L82.8933 310.947H80.4033L78.3333 294.147L72.9033 310.947H71.0133L65.5233 294.357L63.5133 310.947ZM85.9058 300.957C85.9058 297.317 86.7858 294.557 88.5458 292.677C90.3258 290.777 92.6058 289.827 95.3858 289.827C98.1658 289.827 100.376 290.647 102.016 292.287C103.676 293.927 104.506 296.547 104.506 300.147C104.506 303.747 103.626 306.467 101.866 308.307C100.106 310.147 97.7558 311.067 94.8158 311.067C92.2758 311.067 90.1958 310.337 88.5758 308.877C87.7358 308.117 87.0758 307.067 86.5958 305.727C86.1358 304.367 85.9058 302.777 85.9058 300.957ZM95.2958 290.127C93.2758 290.127 91.6158 291.027 90.3158 292.827C89.0358 294.627 88.3958 297.267 88.3958 300.747C88.3958 304.227 89.0058 306.767 90.2258 308.367C91.4458 309.967 93.0658 310.767 95.0858 310.767C97.1258 310.767 98.7858 309.867 100.066 308.067C101.366 306.247 102.016 303.617 102.016 300.177C102.016 296.717 101.396 294.177 100.156 292.557C98.9358 290.937 97.3158 290.127 95.2958 290.127ZM107.205 300.957C107.205 297.317 108.085 294.557 109.845 292.677C111.625 290.777 113.905 289.827 116.685 289.827C119.465 289.827 121.675 290.647 123.315 292.287C124.975 293.927 125.805 296.547 125.805 300.147C125.805 303.747 124.925 306.467 123.165 308.307C121.405 310.147 119.055 311.067 116.115 311.067C113.575 311.067 111.495 310.337 109.875 308.877C109.035 308.117 108.375 307.067 107.895 305.727C107.435 304.367 107.205 302.777 107.205 300.957ZM116.595 290.127C114.575 290.127 112.915 291.027 111.615 292.827C110.335 294.627 109.695 297.267 109.695 300.747C109.695 304.227 110.305 306.767 111.525 308.367C112.745 309.967 114.365 310.767 116.385 310.767C118.425 310.767 120.085 309.867 121.365 308.067C122.665 306.247 123.315 303.617 123.315 300.177C123.315 296.717 122.695 294.177 121.455 292.557C120.235 290.937 118.615 290.127 116.595 290.127ZM129.343 310.947H128.953V289.947H129.973L142.453 309.357V289.947H142.843V310.947H140.653L129.343 293.547V310.947Z" fill="#FFB35C"/>
<path d="M103.502 15.524C111.986 15.5241 119.288 20.5803 122.56 27.8434C119.789 21.7695 114.167 17.6131 107.681 17.6129C98.4503 17.6129 90.9673 26.0319 90.9673 36.4166C90.9673 46.8013 98.4503 55.2194 107.681 55.2194C114.171 55.2192 119.797 51.0578 122.566 44.9772C119.296 52.247 111.991 57.3092 103.502 57.3092C91.9639 57.3092 82.6099 47.9551 82.6098 36.4166C82.6098 24.878 91.9638 15.524 103.502 15.524ZM124.28 38.61C124.045 40.8803 123.454 43.0275 122.566 44.9772C123.456 42.9991 124.045 40.8575 124.28 38.61ZM124.37 37.4303C124.367 37.4886 124.363 37.5469 124.36 37.6051C124.363 37.5469 124.367 37.4887 124.37 37.4303ZM124.388 36.9557C124.386 37.0313 124.382 37.1068 124.379 37.1823C124.383 37.089 124.387 36.9956 124.389 36.902L124.388 36.9557ZM124.36 35.2301C124.363 35.2874 124.367 35.3446 124.37 35.402C124.367 35.3446 124.363 35.2873 124.36 35.2301ZM124.281 34.236C124.047 31.979 123.455 29.8287 122.56 27.8434C123.453 29.8001 124.047 31.956 124.281 34.236ZM124.36 37.6051C124.352 37.7416 124.344 37.8776 124.333 38.0133C124.344 37.8776 124.352 37.7415 124.36 37.6051ZM124.327 38.1002C124.315 38.2485 124.301 38.3963 124.287 38.5436C124.301 38.3962 124.315 38.2485 124.327 38.1002ZM124.379 35.65C124.382 35.7258 124.386 35.8016 124.388 35.8776V35.9176C124.386 35.8282 124.383 35.7391 124.379 35.65Z" fill="#FFB35C"/>
<path d="M103.502 119.986C115.041 119.986 124.395 129.34 124.395 140.879C124.395 152.417 115.041 161.771 103.502 161.771C91.9639 161.771 82.6099 152.417 82.6098 140.879C82.6098 129.34 91.9638 119.986 103.502 119.986Z" fill="#FFB35C"/>
<line x1="103.854" y1="141.234" x2="4.61486" y2="239.429" stroke="#FFB35C"/>
<line x1="109.17" y1="148.88" x2="199.959" y2="238.718" stroke="#FFB35C"/>
<line x1="104.002" y1="148.191" x2="103.986" y2="282.947" stroke="#FFB35C"/>
<path d="M156.778 142.968C156.778 160.853 132.692 175.351 102.98 175.351C73.2681 175.351 49.1819 160.853 49.1819 142.968C49.1819 125.083 73.2681 110.585 102.98 110.585C132.692 110.585 156.778 125.083 156.778 142.968ZM49.787 142.968C49.787 160.652 73.6023 174.987 102.98 174.987C132.358 174.987 156.173 160.652 156.173 142.968C156.173 125.284 132.358 110.949 102.98 110.949C73.6023 110.949 49.787 125.284 49.787 142.968Z" fill="#FFB35C"/>
<path d="M172.447 145.057C172.447 168.134 141.346 186.842 102.98 186.842C64.6142 186.842 33.5126 168.134 33.5126 145.057C33.5126 121.98 64.6142 103.272 102.98 103.272C141.346 103.272 172.447 121.98 172.447 145.057ZM34.2939 145.057C34.2939 167.875 65.0457 186.372 102.98 186.372C140.914 186.372 171.666 167.875 171.666 145.057C171.666 122.24 140.914 103.742 102.98 103.742C65.0457 103.742 34.2939 122.24 34.2939 145.057Z" fill="#FFB35C"/>
<line x1="103.002" y1="110.585" x2="103.002" y2="82.3799" stroke="#FFB35C"/>
<line x1="76.9395" y1="114.987" x2="65.4487" y2="92.0051" stroke="#FFB35C"/>
<line x1="128.151" y1="114.495" x2="142.776" y2="91.5131" stroke="#FFB35C"/>
</svg>
