<svg width="206" height="332" viewBox="0 0 206 332" fill="none" xmlns="http://www.w3.org/2000/svg">
<rect width="205.791" height="331.145" rx="20" fill="#FFFAD7"/>
<rect x="4.6785" y="6.76773" width="196.434" height="317.61" rx="19.5" fill="white" stroke="white"/>
<line x1="5.22311" y1="282.093" x2="201.612" y2="282.093" stroke="#FFC471" stroke-width="2"/>
<rect x="4.6785" y="6.76773" width="196.434" height="317.61" rx="19.5" stroke="#FFC471"/>
<path d="M57.5002 311.092H57.1402L66.1102 290.092L66.4402 289.942L74.0002 311.092H71.4502L69.1102 304.492H60.3502L57.5002 311.092ZM65.1802 293.332L60.4702 304.192H69.0202L65.1802 293.332ZM88.2594 311.092C87.4394 311.092 86.8094 310.912 86.3694 310.552C85.9494 310.192 85.7294 309.832 85.7094 309.472L85.6794 308.962V299.542C85.6794 297.962 85.2694 296.952 84.4494 296.512C84.0294 296.312 83.5094 296.212 82.8894 296.212C81.6094 296.212 80.4594 296.722 79.4394 297.742C78.4194 298.742 77.9094 299.642 77.9094 300.442V311.092H75.8094V296.092H77.9094V299.512C78.2494 298.652 78.8794 297.852 79.7994 297.112C80.7194 296.352 81.7294 295.972 82.8294 295.972C83.9294 295.972 84.8194 296.082 85.4994 296.302C86.1994 296.502 86.7094 296.792 87.0294 297.172C87.5294 297.792 87.7794 298.592 87.7794 299.572V308.962C87.7794 309.542 87.8894 309.992 88.1094 310.312C88.3494 310.612 88.5894 310.772 88.8294 310.792L89.1594 310.852H90.0894V311.092H88.2594ZM94.6604 311.092C93.8404 311.092 93.2104 310.912 92.7704 310.552C92.3504 310.192 92.1304 309.832 92.1104 309.472L92.0804 308.962V296.092H94.1804V308.962C94.1804 309.542 94.2904 309.992 94.5104 310.312C94.7504 310.612 94.9804 310.772 95.2004 310.792L95.5604 310.852H96.4904V311.092H94.6604ZM92.2604 292.732C92.0204 292.492 91.9004 292.192 91.9004 291.832C91.9004 291.472 92.0204 291.172 92.2604 290.932C92.5004 290.672 92.8004 290.542 93.1604 290.542C93.5204 290.542 93.8204 290.672 94.0604 290.932C94.3204 291.172 94.4504 291.472 94.4504 291.832C94.4504 292.192 94.3204 292.492 94.0604 292.732C93.8204 292.972 93.5204 293.092 93.1604 293.092C92.8004 293.092 92.5004 292.972 92.2604 292.732ZM116.399 299.542C116.399 298.322 116.239 297.462 115.919 296.962C115.599 296.462 114.989 296.212 114.089 296.212C112.889 296.212 111.819 296.712 110.879 297.712C109.959 298.712 109.499 299.612 109.499 300.412V311.092H107.399V299.542C107.399 298.322 107.239 297.462 106.919 296.962C106.599 296.462 105.919 296.212 104.879 296.212C103.839 296.212 102.849 296.692 101.909 297.652C100.989 298.612 100.489 299.502 100.409 300.322V311.092H98.3094V296.092H100.409V299.482C100.729 298.622 101.319 297.822 102.179 297.082C103.039 296.342 103.999 295.972 105.059 295.972C106.119 295.972 106.959 296.072 107.579 296.272C108.219 296.452 108.669 296.742 108.929 297.142C109.189 297.542 109.349 297.892 109.409 298.192C109.469 298.492 109.499 298.912 109.499 299.452C109.819 298.592 110.399 297.802 111.239 297.082C112.079 296.342 112.979 295.972 113.939 295.972C114.899 295.972 115.669 296.052 116.249 296.212C116.829 296.372 117.259 296.552 117.539 296.752C117.839 296.952 118.059 297.242 118.199 297.622C118.359 298.002 118.449 298.312 118.469 298.552C118.489 298.792 118.499 299.132 118.499 299.572V308.962C118.499 309.542 118.609 309.992 118.829 310.312C119.069 310.612 119.309 310.772 119.549 310.792L119.879 310.852H120.809V311.092H118.979C118.159 311.092 117.529 310.912 117.089 310.552C116.669 310.192 116.449 309.832 116.429 309.472L116.399 308.962V299.542ZM124.404 307.642C124.404 309.222 124.824 310.232 125.664 310.672C126.064 310.872 126.574 310.972 127.194 310.972C128.454 310.972 129.574 310.492 130.554 309.532C131.554 308.572 132.094 307.682 132.174 306.862V296.092H134.274V308.962C134.274 309.542 134.384 309.992 134.604 310.312C134.844 310.612 135.084 310.772 135.324 310.792L135.654 310.852H136.584V311.092H134.754C133.934 311.092 133.304 310.912 132.864 310.552C132.444 310.192 132.224 309.832 132.204 309.472L132.174 308.962V307.672C131.814 308.532 131.174 309.342 130.254 310.102C129.334 310.842 128.324 311.212 127.224 311.212C126.144 311.212 125.254 311.112 124.554 310.912C123.874 310.692 123.384 310.392 123.084 310.012C122.564 309.392 122.304 308.592 122.304 307.612V296.092H124.404V307.642ZM146.855 297.142C146.535 296.882 146.015 296.662 145.295 296.482C144.595 296.302 144.065 296.212 143.705 296.212C143.345 296.212 143.135 296.212 143.075 296.212C141.995 296.232 141.215 296.512 140.735 297.052C140.255 297.572 140.015 298.162 140.015 298.822C140.015 299.482 140.225 300.042 140.645 300.502C141.065 300.942 141.585 301.292 142.205 301.552C142.845 301.792 143.525 302.072 144.245 302.392C144.985 302.712 145.665 303.042 146.285 303.382C146.925 303.702 147.455 304.182 147.875 304.822C148.295 305.442 148.505 306.222 148.505 307.162C148.505 308.102 148.175 308.902 147.515 309.562C146.855 310.222 146.115 310.662 145.295 310.882C144.495 311.102 143.625 311.212 142.685 311.212C140.645 311.212 139.115 310.762 138.095 309.862L138.275 309.682C138.675 310.062 139.265 310.372 140.045 310.612C140.845 310.852 141.615 310.972 142.355 310.972C143.535 310.972 144.505 310.652 145.265 310.012C146.045 309.352 146.435 308.542 146.435 307.582C146.435 306.602 146.145 305.822 145.565 305.242C144.985 304.642 144.275 304.182 143.435 303.862C142.615 303.522 141.785 303.192 140.945 302.872C140.105 302.532 139.395 302.072 138.815 301.492C138.235 300.892 137.945 300.202 137.945 299.422C137.945 298.642 138.125 298.012 138.485 297.532C138.845 297.032 139.325 296.682 139.925 296.482C140.945 296.142 141.965 295.972 142.985 295.972C144.705 295.972 146.045 296.292 147.005 296.932L146.855 297.142Z" fill="#FFB35C"/>
<path d="M113.864 91.9268C136.364 91.9268 154.604 110.167 154.604 132.667C154.604 155.167 136.364 173.407 113.864 173.407C91.3636 173.407 73.1236 155.167 73.1236 132.667C73.1236 110.167 91.3636 91.9268 113.864 91.9268Z" fill="black"/>
<path d="M103.418 97.1498C125.918 97.1498 144.158 115.39 144.158 137.89C144.158 160.39 125.918 178.63 103.418 178.63C80.9174 178.63 62.6773 160.39 62.6773 137.89C62.6774 115.39 80.9174 97.1499 103.418 97.1498Z" fill="#FFB35C"/>
<path d="M75.9327 214.892C79.9235 219.808 100.063 223.549 124.31 223.549C134.492 223.549 143.951 222.889 151.794 221.759C152.267 222.341 152.515 222.939 152.515 223.549C152.514 229.319 130.533 233.996 103.418 233.996C76.3026 233.996 54.3208 229.319 54.3204 223.549C54.3204 219.947 62.892 216.77 75.9327 214.892ZM124.31 202.657C151.425 202.657 173.407 207.334 173.407 213.103C173.407 216.706 164.835 219.881 151.794 221.759C147.801 216.844 127.663 213.103 103.418 213.103C93.2348 213.103 83.7754 213.763 75.9327 214.892C75.4605 214.31 75.213 213.713 75.213 213.103C75.213 207.334 97.1942 202.657 124.31 202.657Z" fill="#FFC471"/>
<path d="M130.578 154.604C130.578 154.604 115.525 151.47 103.94 151.47C92.3546 151.47 77.3021 154.604 77.3021 154.604" stroke="white"/>
<path d="M126.93 122.221C129.534 122.221 130.902 125.312 129.15 127.239L123.265 133.712L119.094 138.347C117.254 140.391 113.864 139.089 113.864 136.34L113.864 125.221C113.864 123.564 115.207 122.221 116.864 122.221L126.93 122.221Z" fill="white"/>
<path d="M92.9714 136.332C92.9714 138.936 89.8805 140.303 87.9534 138.551L81.4806 132.667L76.8453 128.495C74.8017 126.656 76.1028 123.265 78.8522 123.265L89.9714 123.265C91.6283 123.265 92.9714 124.609 92.9714 126.265L92.9714 136.332Z" fill="white"/>
<path d="M114.908 32.914C114.908 35.5184 111.818 36.8857 109.89 35.1338L103.418 29.2494L98.7824 25.0777C96.7387 23.2384 98.0398 19.8478 100.789 19.8478L111.908 19.8478C113.565 19.8478 114.908 21.191 114.908 22.8478L114.908 32.914Z" fill="#FFC471"/>
<path d="M115.453 38.2166C115.453 40.3091 113.056 41.4479 111.441 40.2088L111.288 40.0818L101.513 31.3504L101.511 31.3494L94.0136 24.7205C92.2896 23.1956 93.3682 20.3476 95.6699 20.3475L112.953 20.3475C114.334 20.3475 115.453 21.4669 115.453 22.8475L115.453 38.2166Z" stroke="#FFC471"/>
</svg>
