<svg width="197" height="317" viewBox="0 0 197 317" fill="none" xmlns="http://www.w3.org/2000/svg">
<rect width="197" height="317" rx="20" fill="#FFFAD7"/>
<rect x="4.5" y="6.5" width="188" height="304" rx="19.5" fill="black" stroke="white"/>
<line x1="5" y1="270" x2="193" y2="270" stroke="#FFC471" stroke-width="2"/>
<rect x="4.5" y="6.5" width="188" height="304" rx="19.5" stroke="#FFC471"/>
<path d="M64.1228 299H63.7628L72.7328 278L73.0628 277.85L80.6228 299H78.0728L75.7328 292.4H66.9728L64.1228 299ZM71.8028 281.24L67.0928 292.1H75.6428L71.8028 281.24ZM94.8819 299C94.0619 299 93.4319 298.82 92.9919 298.46C92.5719 298.1 92.3519 297.74 92.3319 297.38L92.3019 296.87V287.45C92.3019 285.87 91.8919 284.86 91.0719 284.42C90.6519 284.22 90.1319 284.12 89.5119 284.12C88.2319 284.12 87.0819 284.63 86.0619 285.65C85.0419 286.65 84.5319 287.55 84.5319 288.35V299H82.4319V284H84.5319V287.42C84.8719 286.56 85.5019 285.76 86.4219 285.02C87.3419 284.26 88.3519 283.88 89.4519 283.88C90.5519 283.88 91.4419 283.99 92.1219 284.21C92.8219 284.41 93.3319 284.7 93.6519 285.08C94.1519 285.7 94.4019 286.5 94.4019 287.48V296.87C94.4019 297.45 94.5119 297.9 94.7319 298.22C94.9719 298.52 95.2119 298.68 95.4519 298.7L95.7819 298.76H96.7119V299H94.8819ZM101.283 299C100.463 299 99.8329 298.82 99.3929 298.46C98.9729 298.1 98.7529 297.74 98.7329 297.38L98.7029 296.87V284H100.803V296.87C100.803 297.45 100.913 297.9 101.133 298.22C101.373 298.52 101.603 298.68 101.823 298.7L102.183 298.76H103.113V299H101.283ZM98.8829 280.64C98.6429 280.4 98.5229 280.1 98.5229 279.74C98.5229 279.38 98.6429 279.08 98.8829 278.84C99.1229 278.58 99.4229 278.45 99.7829 278.45C100.143 278.45 100.443 278.58 100.683 278.84C100.943 279.08 101.073 279.38 101.073 279.74C101.073 280.1 100.943 280.4 100.683 280.64C100.443 280.88 100.143 281 99.7829 281C99.4229 281 99.1229 280.88 98.8829 280.64ZM123.022 287.45C123.022 286.23 122.862 285.37 122.542 284.87C122.222 284.37 121.612 284.12 120.712 284.12C119.512 284.12 118.442 284.62 117.502 285.62C116.582 286.62 116.122 287.52 116.122 288.32V299H114.022V287.45C114.022 286.23 113.862 285.37 113.542 284.87C113.222 284.37 112.542 284.12 111.502 284.12C110.462 284.12 109.472 284.6 108.532 285.56C107.612 286.52 107.112 287.41 107.032 288.23V299H104.932V284H107.032V287.39C107.352 286.53 107.942 285.73 108.802 284.99C109.662 284.25 110.622 283.88 111.682 283.88C112.742 283.88 113.582 283.98 114.202 284.18C114.842 284.36 115.292 284.65 115.552 285.05C115.812 285.45 115.972 285.8 116.032 286.1C116.092 286.4 116.122 286.82 116.122 287.36C116.442 286.5 117.022 285.71 117.862 284.99C118.702 284.25 119.602 283.88 120.562 283.88C121.522 283.88 122.292 283.96 122.872 284.12C123.452 284.28 123.882 284.46 124.162 284.66C124.462 284.86 124.682 285.15 124.822 285.53C124.982 285.91 125.072 286.22 125.092 286.46C125.112 286.7 125.122 287.04 125.122 287.48V296.87C125.122 297.45 125.232 297.9 125.452 298.22C125.692 298.52 125.932 298.68 126.172 298.7L126.502 298.76H127.432V299H125.602C124.782 299 124.152 298.82 123.712 298.46C123.292 298.1 123.072 297.74 123.052 297.38L123.022 296.87V287.45ZM140.73 299C139.37 299 138.44 298.74 137.94 298.22C137.48 297.78 137.25 297.4 137.25 297.08V296.45C136.27 298.23 134.7 299.12 132.54 299.12C130.02 299.12 128.59 297.98 128.25 295.7C128.21 295.46 128.19 295.22 128.19 294.98C128.19 294.72 128.23 294.44 128.31 294.14C128.39 293.84 128.62 293.51 129 293.15C129.76 292.43 131.43 291.99 134.01 291.83C134.65 291.77 135.24 291.74 135.78 291.74C136.32 291.74 136.81 291.76 137.25 291.8V286.82C137.21 286.8 137.21 286.71 137.25 286.55C137.29 286.37 137.25 286.15 137.13 285.89C137.03 285.61 136.89 285.34 136.71 285.08C136.53 284.82 136.21 284.6 135.75 284.42C135.29 284.22 134.69 284.12 133.95 284.12C133.21 284.12 132.34 284.26 131.34 284.54C130.36 284.8 129.64 285.06 129.18 285.32L129.06 285.11C130.84 284.29 132.65 283.88 134.49 283.88C136.55 283.88 137.91 284.25 138.57 284.99C139.09 285.57 139.35 286.18 139.35 286.82V296.87C139.35 297.45 139.46 297.9 139.68 298.22C139.92 298.52 140.16 298.68 140.4 298.7L140.73 298.76H141.66V299H140.73ZM133.02 298.88C134.08 298.88 135.03 298.52 135.87 297.8C136.73 297.06 137.19 296.35 137.25 295.67V292.04C136.71 292 136.16 291.98 135.6 291.98C135.06 291.98 134.52 292.01 133.98 292.07C132.46 292.25 131.47 292.59 131.01 293.09C130.55 293.59 130.32 294.28 130.32 295.16C130.32 295.32 130.33 295.5 130.35 295.7C130.53 297.82 131.42 298.88 133.02 298.88Z" fill="#FFB35C"/>
<path d="M68.9454 216.237C68.9456 222.006 90.9266 226.683 118.042 226.683C131.474 226.683 143.646 225.534 152.511 223.674C152.195 229.386 130.337 233.996 103.418 233.996C76.3027 233.996 54.3209 229.319 54.3204 223.549C54.3204 220.638 59.9181 218.005 68.9483 216.111C68.946 216.153 68.9454 216.195 68.9454 216.237ZM118.042 205.791C145.158 205.791 167.14 210.468 167.14 216.237C167.14 219.148 161.541 221.78 152.511 223.674C152.513 223.633 152.515 223.591 152.515 223.549C152.515 217.78 130.534 213.103 103.418 213.103C89.9857 213.103 77.8129 214.251 68.9483 216.111C69.2653 210.4 91.124 205.791 118.042 205.791Z" fill="white"/>
<path d="M112.819 91.9268C135.319 91.9268 153.559 110.167 153.559 132.667C153.559 155.167 135.319 173.407 112.819 173.407C90.319 173.407 72.079 155.167 72.079 132.667C72.079 110.167 90.319 91.9268 112.819 91.9268Z" fill="white"/>
<path d="M103.418 97.1499C125.918 97.1499 144.158 115.39 144.158 137.89C144.158 160.39 125.918 178.63 103.418 178.63C80.9174 178.63 62.6774 160.39 62.6774 137.89C62.6774 115.39 80.9174 97.1499 103.418 97.1499Z" fill="#FFB35C"/>
<ellipse cx="90.3598" cy="128.489" rx="7.83467" ry="14.6247" fill="white"/>
<rect x="88.7929" y="107.596" width="3.13387" height="7.31236" fill="white"/>
<rect x="82.5251" y="111.901" width="3.13387" height="7.31236" transform="rotate(-45 82.5251 111.901)" fill="white"/>
<rect width="3.13387" height="7.31236" transform="matrix(-0.707107 -0.707107 -0.707107 0.707107 98.2687 111.901)" fill="white"/>
<ellipse cx="90.3598" cy="127.966" rx="4.7008" ry="8.87929" fill="black"/>
<ellipse cx="103.94" cy="39.6957" rx="7.83467" ry="14.6247" fill="#FFB35C"/>
<rect x="102.373" y="18.8032" width="3.13387" height="7.31236" fill="#FFB35C"/>
<rect x="96.1053" y="23.1084" width="3.13387" height="7.31236" transform="rotate(-45 96.1053 23.1084)" fill="#FFB35C"/>
<rect width="3.13387" height="7.31236" transform="matrix(-0.707107 -0.707107 -0.707107 0.707107 111.849 23.1084)" fill="#FFB35C"/>
<ellipse cx="103.94" cy="39.1733" rx="4.7008" ry="8.87929" fill="black"/>
<ellipse cx="116.475" cy="128.489" rx="7.83467" ry="14.6247" fill="white"/>
<rect x="114.909" y="107.596" width="3.13387" height="7.31236" fill="white"/>
<rect x="108.641" y="111.901" width="3.13387" height="7.31236" transform="rotate(-45 108.641 111.901)" fill="white"/>
<rect width="3.13387" height="7.31236" transform="matrix(-0.707107 -0.707107 -0.707107 0.707107 124.384 111.901)" fill="white"/>
<ellipse cx="116.475" cy="127.966" rx="4.7008" ry="8.87929" fill="black"/>
<path d="M76.7797 148.336C76.7797 148.336 91.8322 161.394 103.418 161.394C115.003 161.394 130.055 148.336 130.055 148.336" stroke="white"/>
</svg>
