<svg width="206" height="332" viewBox="0 0 206 332" fill="none" xmlns="http://www.w3.org/2000/svg">
<rect width="205.791" height="331.145" rx="20" fill="#FFFAD7"/>
<rect x="4.67847" y="6.76773" width="196.434" height="317.61" rx="19.5" fill="white" stroke="white"/>
<line x1="5.22314" y1="282.093" x2="201.612" y2="282.093" stroke="#FFC471" stroke-width="2"/>
<rect x="4.67847" y="6.76773" width="196.434" height="317.61" rx="19.5" stroke="#FFC471"/>
<path d="M134.615 130.669L137.731 132.884C141.922 135.863 147.689 135.178 151.066 131.3L151.615 130.669" stroke="white" stroke-width="24"/>
<path d="M67.1733 315.669H64.6833V294.669H67.1733V304.329H76.9233V294.669H79.4133V315.669H76.9233V304.629H67.1733V315.669ZM84.1479 308.349C84.1479 310.829 84.5779 312.649 85.4379 313.809C86.3179 314.969 87.4679 315.549 88.8879 315.549C90.8879 315.549 92.6679 315.249 94.2279 314.649L94.3179 314.859C92.7179 315.479 90.9079 315.789 88.8879 315.789C86.8879 315.789 85.2579 315.189 83.9979 313.989C82.7379 312.789 82.1079 310.939 82.1079 308.439C82.1079 305.939 82.7679 303.999 84.0879 302.619C85.4079 301.239 87.0879 300.549 89.1279 300.549C90.7679 300.549 92.1479 301.039 93.2679 302.019C94.3879 302.999 94.9479 304.449 94.9479 306.369C94.9479 306.469 94.9479 306.569 94.9479 306.669H84.2379C84.1779 307.209 84.1479 307.769 84.1479 308.349ZM92.9079 306.429C92.8879 304.509 92.5179 303.089 91.7979 302.169C91.0779 301.249 90.1479 300.789 89.0079 300.789C87.8679 300.789 86.8479 301.289 85.9479 302.289C85.0679 303.289 84.5079 304.669 84.2679 306.429H92.9079ZM100.889 315.669C99.1286 315.669 98.0186 315.209 97.5586 314.289C97.4586 314.089 97.4086 313.909 97.4086 313.749V293.199H99.5086V313.539C99.5086 314.119 99.6186 314.569 99.8386 314.889C100.079 315.189 100.319 315.349 100.559 315.369L100.889 315.429H101.819V315.669H100.889ZM107.891 315.669C106.131 315.669 105.021 315.209 104.561 314.289C104.461 314.089 104.411 313.909 104.411 313.749V293.199H106.511V313.539C106.511 314.119 106.621 314.569 106.841 314.889C107.081 315.189 107.321 315.349 107.561 315.369L107.891 315.429H108.821V315.669H107.891ZM116.698 315.789C114.598 315.789 112.888 315.189 111.568 313.989C110.248 312.789 109.588 310.939 109.588 308.439C109.588 305.939 110.268 303.999 111.628 302.619C113.008 301.239 114.748 300.549 116.848 300.549C118.968 300.549 120.688 301.149 122.008 302.349C123.328 303.549 123.988 305.399 123.988 307.899C123.988 310.399 123.298 312.339 121.918 313.719C120.558 315.099 118.818 315.789 116.698 315.789ZM116.908 300.789C115.388 300.789 114.128 301.469 113.128 302.829C112.128 304.169 111.628 306.049 111.628 308.469C111.628 310.869 112.088 312.649 113.008 313.809C113.928 314.969 115.148 315.549 116.668 315.549C118.188 315.549 119.448 314.879 120.448 313.539C121.448 312.179 121.948 310.299 121.948 307.899C121.948 305.479 121.488 303.689 120.568 302.529C119.648 301.369 118.428 300.789 116.908 300.789ZM137.35 293.169H139.45L138.85 308.919H137.95L137.35 293.169ZM137.53 314.109C137.29 313.849 137.17 313.539 137.17 313.179C137.17 312.819 137.29 312.519 137.53 312.279C137.77 312.039 138.07 311.919 138.43 311.919C138.79 311.919 139.09 312.039 139.33 312.279C139.59 312.519 139.72 312.819 139.72 313.179C139.72 313.539 139.59 313.849 139.33 314.109C139.09 314.349 138.79 314.469 138.43 314.469C138.07 314.469 137.77 314.349 137.53 314.109Z" fill="#FFB35C"/>
<rect x="145.297" y="82.1134" width="30.0559" height="30.0559" transform="rotate(-38.8445 145.297 82.1134)" fill="#FFC471"/>
<path d="M164.38 84.9268L176.328 57.2545L194.571 79.9084L164.38 84.9268Z" fill="#FFC471"/>
<path d="M18.5126 166.599L32.5475 165.077C36.1162 164.69 39.3234 167.269 39.7105 170.838L41.5122 187.447C41.8993 191.015 39.3198 194.222 35.7512 194.61L21.7163 196.132C18.1474 196.519 14.9404 193.94 14.5532 190.371L12.7515 173.763C12.3644 170.194 14.9437 166.987 18.5126 166.599Z" fill="white" stroke="#FFC471"/>
<path d="M19.8173 186.57L36.7123 184.738C36.7143 184.737 36.7157 184.738 36.7163 184.738C36.7172 184.738 36.719 184.739 36.7204 184.74C36.7218 184.741 36.7223 184.742 36.7228 184.743C36.7231 184.744 36.7239 184.745 36.7242 184.747C36.7243 184.749 36.7238 184.751 36.7236 184.751C36.7233 184.752 36.7229 184.753 36.722 184.754C36.7208 184.756 36.7192 184.757 36.7184 184.758L19.8156 186.591C19.8147 186.591 19.8129 186.59 19.8114 186.589C19.8103 186.588 19.8097 186.587 19.8092 186.586C19.8089 186.585 19.808 186.584 19.8078 186.582C19.8076 186.58 19.8082 186.579 19.8083 186.578C19.8086 186.577 19.8087 186.576 19.8099 186.574C19.811 186.573 19.8127 186.572 19.8135 186.572C19.8141 186.571 19.8152 186.571 19.8173 186.57Z" fill="white" stroke="#FFC471"/>
<path d="M20.7579 173.415C22.354 173.242 23.7886 174.396 23.9617 175.992L24.3083 179.187C24.4813 180.783 23.3276 182.218 21.7316 182.391C20.1355 182.564 18.7011 181.41 18.5278 179.814L18.1812 176.619C18.008 175.023 19.1618 173.589 20.7579 173.415Z" fill="white" stroke="#FFC471"/>
<path d="M31.423 172.446C33.0191 172.273 34.4536 173.426 34.6268 175.023L34.9734 178.218C35.1464 179.814 33.9926 181.248 32.3966 181.421C30.8006 181.595 29.3661 180.441 29.1928 178.845L28.8462 175.65C28.6731 174.053 29.8268 172.619 31.423 172.446Z" fill="white" stroke="#FFC471"/>
<circle cx="124.936" cy="119.226" r="55.264" fill="#FF8800"/>
<path d="M119.119 123.104H165.172" stroke="white" stroke-width="5"/>
<circle cx="92.4564" cy="186.609" r="57.6879" fill="#FFC471"/>
<ellipse cx="67.7331" cy="190.003" rx="10.665" ry="16.4822" fill="white"/>
<ellipse cx="97.7888" cy="190.003" rx="10.665" ry="16.4822" fill="white"/>
<path d="M51.2507 206.485C64.3396 228.628 97.5949 242.956 118.149 206.485" stroke="white" stroke-width="2" stroke-linecap="round"/>
<rect x="145.297" y="97.896" width="25.2081" height="10.665" rx="5.33249" fill="white"/>
<rect x="113.302" y="97.896" width="25.2081" height="10.665" rx="5.33249" fill="white"/>
</svg>
